<?xml version="1.0" standalone="no"?>
<!DOCTYPE svg PUBLIC "-//W3C//DTD SVG 20010904//EN"
 "http://www.w3.org/TR/2001/REC-SVG-20010904/DTD/svg10.dtd">
<svg version="1.0" xmlns="http://www.w3.org/2000/svg"
 width="1608.000000pt" height="1608.000000pt" viewBox="0 0 1608.000000 1608.000000"
 preserveAspectRatio="xMidYMid meet">
<metadata>
Created by potrace 1.11, written by Peter Selinger 2001-2013
</metadata>
<g transform="translate(0.000000,1608.000000) scale(0.100000,-0.100000)"
fill="#000000" stroke="none">
<path d="M4710 11001 c0 -14 -81 -129 -126 -180 -33 -37 -69 -69 -183 -163
-64 -53 -245 -160 -377 -223 -55 -26 -103 -50 -107 -52 -4 -3 -5 6 -2 19 4 13
7 31 8 39 2 8 5 19 9 24 11 19 2 249 -11 290 -8 22 -16 47 -19 55 -3 8 -4 20
-3 26 0 6 -6 17 -14 24 -13 10 -15 9 -15 -8 0 -19 -55 -166 -70 -187 -4 -5
-24 -41 -45 -80 -20 -38 -43 -77 -50 -85 -7 -8 -18 -30 -26 -47 -8 -18 -16
-33 -19 -33 -3 0 -4 30 -3 67 1 49 -6 88 -24 143 -25 77 -43 108 -43 77 0 -34
-63 -150 -105 -191 -43 -44 -105 -92 -105 -82 0 3 -17 -3 -39 -15 -21 -11 -59
-21 -85 -22 -25 -1 -46 -5 -46 -8 0 -7 -139 -3 -200 6 -108 15 -344 93 -407
133 -12 7 -26 14 -30 14 -4 1 -46 19 -93 40 -158 74 -321 132 -400 144 -19 3
-43 8 -54 11 -36 10 -151 3 -198 -13 -53 -17 -128 -80 -128 -107 0 -9 -4 -17
-9 -17 -9 0 -22 -57 -26 -118 -3 -32 -15 -59 -15 -33 0 7 -21 54 -46 105 -69
135 -75 145 -82 150 -4 2 -7 -48 -8 -112 0 -65 -3 -142 -6 -172 -3 -30 -7 -68
-7 -85 l-2 -30 -19 35 c-20 38 -93 120 -107 120 -4 0 -8 -28 -9 -62 -1 -72
-10 -149 -25 -216 -6 -26 -12 -54 -14 -63 -2 -9 -8 -25 -13 -35 -5 -11 -18
-37 -28 -58 -38 -78 -116 -141 -205 -164 -53 -14 -174 -3 -244 22 -5 2 -21 7
-33 11 -79 25 -230 112 -390 224 -24 16 -49 28 -55 26 -7 -3 -25 -7 -40 -9
-140 -24 -237 -112 -285 -259 -25 -74 -30 -239 -8 -290 16 -39 67 -97 84 -97
6 0 15 -6 19 -13 4 -7 42 -28 84 -47 l75 -33 -3 -91 c-5 -124 0 -175 27 -276
10 -36 48 -105 55 -99 4 5 12 73 21 169 6 71 27 180 43 221 l10 26 53 -14 c59
-16 172 -42 203 -47 11 -2 32 -7 46 -11 l26 -7 -41 -43 c-59 -62 -79 -85 -106
-125 -13 -19 -27 -37 -30 -40 -3 -3 -15 -24 -28 -47 -84 -155 -77 -295 20
-392 94 -95 311 -178 533 -206 22 -2 65 -7 95 -11 30 -4 89 -6 130 -5 230 6
343 1 394 -19 12 -4 23 -7 26 -7 29 2 200 -79 200 -94 0 -5 6 -9 13 -9 24 0
98 -96 135 -175 53 -112 62 -325 21 -503 -21 -94 -27 -117 -29 -117 -1 0 -3
-10 -6 -23 -4 -23 -67 -200 -84 -237 -9 -19 -32 -75 -35 -85 -3 -12 -68 -146
-139 -289 -42 -84 -90 -185 -107 -225 -17 -39 -36 -84 -44 -101 -18 -40 -84
-238 -89 -267 -3 -13 -5 -23 -6 -23 -3 0 -28 -118 -36 -170 -12 -77 -10 -251
4 -314 8 -36 15 -77 16 -91 2 -25 8 -42 46 -125 19 -41 182 -215 201 -215 4 0
14 -7 22 -15 24 -23 139 -83 187 -96 33 -9 196 -13 595 -15 683 -3 796 -3 815
-3 25 1 1655 -11 2390 -17 382 -3 706 -5 720 -4 14 1 30 2 35 1 6 0 219 -2
475 -5 580 -7 1205 -14 1680 -21 360 -6 714 -10 1410 -20 653 -8 1175 -19
1450 -31 277 -11 335 -14 395 -19 132 -12 434 -15 440 -5 4 6 10 8 15 5 4 -3
32 0 61 6 30 6 63 12 74 14 11 1 38 7 60 13 252 63 466 159 695 313 157 105
227 168 178 160 -5 0 -8 0 -8 2 0 2 51 55 113 118 61 63 130 136 152 163 22
26 45 52 50 59 26 31 62 76 82 103 112 152 107 144 168 239 24 39 48 75 53 80
4 6 25 39 46 75 102 172 146 251 146 260 0 5 5 10 10 10 6 0 10 9 10 19 0 11
4 22 9 25 5 3 23 34 41 68 47 91 104 194 154 278 14 25 34 60 43 78 9 17 20
32 25 32 4 0 8 5 8 11 0 12 221 349 288 439 22 30 56 75 74 100 38 51 199 252
207 260 3 3 35 39 71 80 220 253 492 508 722 675 44 32 64 51 56 56 -7 4 -15
6 -18 4 -4 -2 -42 -6 -86 -9 -131 -9 -211 -23 -329 -59 -38 -12 -73 -20 -77
-19 -5 1 -8 -2 -8 -8 0 -5 -8 -10 -17 -10 -10 -1 -34 -9 -53 -20 -19 -10 -49
-25 -67 -33 -42 -20 -176 -111 -238 -161 -117 -95 -281 -259 -440 -440 -33
-37 -69 -78 -80 -90 -11 -12 -38 -44 -60 -71 -22 -26 -49 -58 -61 -69 -11 -12
-49 -55 -85 -96 -35 -41 -68 -80 -74 -86 -5 -6 -31 -35 -56 -65 -26 -30 -57
-66 -70 -80 -13 -14 -53 -59 -89 -99 -240 -269 -661 -701 -799 -820 -126 -108
-353 -270 -379 -270 -6 0 -12 -4 -14 -8 -3 -8 -170 -92 -192 -97 -6 -1 -18 -5
-26 -8 -111 -42 -245 -66 -385 -69 -18 0 -99 12 -153 23 -102 21 -219 77 -318
155 -88 69 -209 206 -248 281 -11 21 -21 30 -31 27 -8 -4 -15 -10 -15 -15 0
-5 -8 -9 -17 -9 -9 0 -14 -3 -10 -6 3 -3 -18 -26 -46 -52 -29 -25 -54 -48 -57
-51 -8 -10 -153 -115 -179 -129 -25 -15 -50 -22 -95 -27 -36 -4 -75 32 -77 72
-5 93 -4 133 7 176 7 26 11 47 9 47 -2 0 -27 -23 -57 -51 -29 -28 -73 -67 -97
-88 -25 -20 -57 -47 -73 -62 -35 -31 -153 -102 -193 -116 -109 -36 -163 31
-152 187 6 73 8 86 22 143 10 37 1 34 -50 -15 -66 -67 -155 -143 -215 -187
-30 -22 -60 -45 -66 -50 -7 -5 -47 -26 -90 -47 -130 -62 -218 -51 -264 32 -14
25 -20 41 -35 97 -2 4 -3 32 -4 62 0 30 -4 55 -8 55 -5 -1 -39 -30 -78 -66
-86 -81 -221 -184 -241 -184 -8 0 -14 -4 -14 -9 0 -8 -12 -14 -60 -27 -113
-34 -165 24 -165 183 0 50 -1 90 -3 88 -43 -43 -205 -195 -222 -209 -174 -139
-261 -178 -310 -138 -13 10 -25 27 -27 38 -5 22 -4 105 2 132 2 11 6 35 9 53
3 19 14 63 26 98 11 35 20 66 20 69 0 2 -36 -30 -80 -72 -178 -170 -388 -296
-554 -332 -12 -3 -46 -5 -76 -5 -47 0 -58 4 -77 26 -29 33 -33 89 -11 144 6
14 12 31 14 38 1 6 20 45 42 87 41 80 40 81 -23 32 -22 -17 -60 -45 -85 -61
-25 -17 -46 -33 -48 -37 -2 -5 -8 -8 -14 -8 -6 0 -27 -13 -48 -30 -21 -16 -43
-30 -49 -30 -6 0 -11 -4 -11 -8 0 -5 -12 -15 -27 -23 -28 -14 -89 -52 -108
-66 -19 -15 -205 -107 -223 -110 -62 -13 -74 -11 -92 19 -21 35 -18 74 12 133
23 45 66 108 97 144 12 13 21 26 21 28 0 6 -102 -53 -198 -114 -45 -29 -87
-53 -92 -53 -6 0 -10 -4 -10 -9 0 -5 -8 -12 -17 -15 -21 -7 -32 -14 -132 -79
-41 -27 -88 -56 -105 -65 -17 -10 -46 -27 -64 -40 -17 -13 -32 -20 -32 -15 0
4 -4 3 -8 -3 -17 -28 -215 -115 -239 -107 -17 6 -16 42 3 100 18 56 138 306
165 345 28 39 24 52 -11 31 -16 -9 -30 -21 -30 -25 0 -4 -4 -8 -10 -8 -12 0
-154 -91 -158 -102 -2 -4 -12 -8 -23 -8 -10 0 -19 -4 -19 -9 0 -5 -13 -14 -30
-21 -16 -7 -30 -15 -30 -19 0 -4 -12 -12 -27 -18 -28 -11 -83 -43 -93 -53 -3
-3 -21 -13 -40 -23 -19 -9 -53 -27 -75 -40 -101 -57 -198 -92 -241 -88 -21 2
-24 47 -8 102 16 56 111 243 171 339 l35 55 -43 -41 c-157 -147 -281 -236
-419 -300 -132 -62 -178 -74 -345 -88 -43 -4 -110 15 -142 40 -39 29 -61 68
-69 121 -3 21 -7 46 -10 56 -3 9 -2 17 3 17 4 0 8 15 9 33 1 71 34 190 80 295
13 30 24 58 24 63 0 4 -27 -10 -60 -31 -32 -22 -64 -40 -70 -40 -5 0 -10 -4
-10 -10 0 -5 -5 -10 -10 -10 -6 0 -27 -10 -48 -23 -130 -81 -360 -194 -467
-228 -71 -23 -154 -37 -195 -32 -95 10 -148 141 -103 255 9 24 21 46 26 49 5
3 9 10 8 15 0 5 18 33 40 62 l40 54 -32 -7 c-57 -13 -205 -119 -289 -209 -19
-20 -38 -36 -42 -36 -35 0 67 313 119 368 7 7 13 18 13 24 0 6 10 25 23 42 12
17 31 44 41 60 19 30 19 30 -25 -6 -88 -71 -184 -106 -284 -103 -78 2 -110 9
-131 26 -8 6 -14 8 -14 4 0 -18 -68 69 -77 99 -11 35 -9 109 4 129 4 6 8 18 9
25 4 23 52 97 88 134 60 61 116 82 219 82 l87 0 -4 60 c-10 137 -54 354 -78
384 -6 6 -8 12 -5 12 17 0 -125 303 -174 372 -11 14 -19 29 -19 33 0 3 -7 13
-15 22 -20 20 -17 23 36 27 150 14 283 55 453 137 84 41 270 151 286 169 3 3
23 17 45 32 22 15 54 39 70 53 l30 25 -40 -14 c-24 -8 -51 -10 -67 -5 -17 4
-28 3 -28 -2 0 -6 -3 -8 -8 -5 -4 2 -28 7 -52 11 -25 3 -52 8 -60 10 -8 2 -28
7 -45 9 -16 3 -64 17 -105 31 -41 14 -83 29 -92 32 -31 10 -20 21 35 33 28 7
56 15 62 18 5 3 16 7 25 8 32 4 585 205 597 217 1 2 -28 9 -65 17 -63 12 -289
85 -357 114 -16 8 -67 29 -112 47 -80 31 -102 47 -65 46 73 -4 207 28 301 70
80 37 221 140 221 162 0 5 6 11 13 14 27 9 -3 15 -124 21 -69 4 -136 8 -150
11 -13 2 -51 7 -84 10 -33 3 -76 8 -95 10 -19 3 -53 7 -75 9 -22 3 -40 6 -40
6 0 1 -11 3 -25 5 -29 3 -176 25 -205 31 -11 2 -38 7 -60 9 -43 6 -77 12 -85
16 -9 4 -25 7 -50 8 -15 1 7 12 55 26 44 13 98 32 120 41 22 10 43 17 47 16 3
-1 11 5 18 12 9 11 5 15 -19 21 -16 3 -51 20 -78 37 -53 34 -173 154 -173 173
0 7 19 17 43 24 93 27 347 152 367 180 3 4 12 12 21 17 51 28 165 135 228 214
20 25 39 47 42 50 13 11 102 166 121 209 29 69 57 151 51 151 -3 0 -1 6 4 13
6 6 14 30 18 52 4 22 9 50 11 63 3 12 2 22 -1 22 -3 0 -5 -4 -5 -9z"/>
</g>
</svg>
