<?xml version="1.0" encoding="utf-8"?>
<!-- Generator: Adobe Illustrator 21.0.0, SVG Export Plug-In . SVG Version: 6.00 Build 0)  -->
<svg version="1.1" id="tracing" xmlns="http://www.w3.org/2000/svg" xmlns:xlink="http://www.w3.org/1999/xlink" x="0px" y="0px"
	 viewBox="0 0 201.3 74.8" style="enable-background:new 0 0 201.3 74.8;" xml:space="preserve">
<style type="text/css">
	.st0{fill:#BBC191;}
	.st1{fill:#FFFFFF;}
	.st2{fill:#F0ECE1;}
</style>
<path class="st0" d="M4.7,11c0,0,12.3,10.4,12.3-4.1c0,0,1.8,1.4,1.6,2.5s0.6-4.5,0.2-5.7c0,0,2,3.3,2,4.3c0,0-1.8-8.4,10.6-2.3
	s13.5-2,13.5-2s1.4,2.5,0.6,4.1c0,0,2.9-4.3,2.9-6.1c0,0,1.6,3.1,0.4,6.3c0,0,8-3.1,10.2-8c0,0-0.6,9.2-11.5,12.5
	c0,0,1.4,2.3,3.7,2.9c0,0-2.5,1.2-3.7,1.2c0,0,8.6,1.6,13.1,1.6c0,0-2.3,3.3-7.4,3.3c0,0,6.1,2.7,8.2,2.7c0,0-8.2,3.3-9.8,3.3
	c0,0,5.6,2.4,7.2,0.8c0,0-6.3,5.5-12.1,5.5c0,0,3.9,5.3,3.9,11.5c0,0-3.3-1.2-4.9,2.5c-1.6,3.7,3.4,5.2,6.8,1.8c0,0-2.9,3.7-2.9,6.8
	c0,0,3.1-3.3,4.7-3.3c0,0-3.1,3.1-1,5.1c2,2,11.7-4.5,11.7-4.5s-4.1,8,1.2,8s10.2-5.5,10.2-5.5s-3.6,5.4-2.7,6.3s10.4-5.5,10.4-5.5
	s-2.7,4.5-2.7,6.1s9.8-5.5,11.5-6.1c0,0-2.8,3-1.6,4.1c1.1,1.1,9.6-5.3,9.6-5.3s-3.7,5.5,0.6,4.7s8.2-5.3,8.2-5.3s-2,5.3,0,5.3
	s6.3-4.7,6.3-4.7s-1.6,8.4,7-0.2c0,0-0.9,9.1,9.2-1c0,0-3,10.3,6.8,0.6c0,0-2.4,8.5,6.1,0c0,0,7.4,15.1,24.3-1.8
	c16.8-16.8,19-25.4,31.3-25.6c0.1,0,0.2,0,0.4,0c0,0-11.5,7-21.1,25.4s-19,20.9-26.8,21.1C145.6,74.3,30,72.6,30,72.6
	s-18.6,1.8-7-20.5s-6.3-19.2-6.3-19.2s-17.8-0.4-7.2-11c0,0-8.8-1.4-9.4-4.1S0.6,11,4.7,11z"/>
<ellipse transform="matrix(0.192 -0.9814 0.9814 0.192 4.6937 32.7104)" cx="22.2" cy="13.5" rx="3.7" ry="1.9"/>
<ellipse transform="matrix(0.192 -0.9814 0.9814 0.192 4.2201 31.9426)" class="st1" cx="21.5" cy="13.4" rx="1.6" ry="1.2"/>
<path class="st2" d="M3.5,20.3c0,0-0.6,4.3,1,6c0,0,0.3-4.7,0.9-5.3L3.5,20.3z"/>
<path class="st2" d="M20.3,69.2c3.7,4.4,6.4,3.9,6.4,3.9s114.5,0.4,124.7,1.6c10.2,1.1,18.3-6.5,18.3-6.5L19.5,67.3L20.3,69.2z"/>
</svg>
