<svg xmlns="http://www.w3.org/2000/svg" viewBox="0 0 381.28 26.85"><defs><style>.cls-1{fill:none;stroke:#b2ddfb;stroke-miterlimit:10;}</style></defs><title>wave1</title><g id="tracing"><path class="cls-1" d="M.38,26.5s20-24,44-24,42,24,42,24"/><path class="cls-1" d="M19.38,26.5s11-11,24-11,24,11,24,11"/><line class="cls-1" x1="38.38" y1="25.5" x2="48.38" y2="25.5"/><path class="cls-1" d="M99.88,25.5s20-24,44-24,42,24,42,24"/><path class="cls-1" d="M118.88,25.5s11-11,24-11,24,11,24,11"/><line class="cls-1" x1="137.88" y1="24.5" x2="147.88" y2="24.5"/><path class="cls-1" d="M196.88,25.5s20-24,44-24,42,24,42,24"/><path class="cls-1" d="M215.88,25.5s11-11,24-11,24,11,24,11"/><line class="cls-1" x1="234.88" y1="24.5" x2="244.88" y2="24.5"/><path class="cls-1" d="M294.88,24.5s20-24,44-24,42,24,42,24"/><path class="cls-1" d="M313.88,24.5s11-11,24-11,24,11,24,11"/><line class="cls-1" x1="332.88" y1="23.5" x2="342.88" y2="23.5"/></g></svg>